<svg width="36" height="36" fill="none" xmlns="http://www.w3.org/2000/svg"><mask id="mask0_301_2754" style="mask-type:alpha" maskUnits="userSpaceOnUse" x="7" y="3" width="28" height="30"><path d="M33.804 16.2a2.048 2.048 0 010 3.6L10.976 32.361c-1.39.765-3.101-.228-3.101-1.8V5.438c0-1.572 1.71-2.565 3.1-1.8l22.83 12.563z" fill="#C4C4C4"/></mask><g mask="url(#mask0_301_2754)"><path d="M8.59 32.115l14.239-14.32L8.824 3.71a2.033 2.033 0 00-.949 1.727v25.124c0 .64.284 1.184.714 1.553z" fill="url(#paint0_linear_301_2754)"/><path d="M33.804 16.2a2.048 2.048 0 010 3.6l-5.759 3.168-5.216-5.173 4.95-4.91 6.025 3.315z" fill="url(#paint1_linear_301_2754)"/><path d="M28.045 22.969l-5.216-5.174-14.24 14.32c.626.536 1.563.7 2.387.247l17.07-9.393z" fill="url(#paint2_linear_301_2754)"/><path d="M8.824 3.711l14.005 14.084 4.95-4.91-16.803-9.247c-.727-.4-1.54-.32-2.152.073z" fill="url(#paint3_linear_301_2754)"/></g><defs><linearGradient id="paint0_linear_301_2754" x1="17.637" y1="12.233" x2="7.955" y2="21.994" gradientUnits="userSpaceOnUse"><stop stop-color="#00C3FF"/><stop offset="1" stop-color="#1BE2FA"/></linearGradient><linearGradient id="paint1_linear_301_2754" x1="22.829" y1="17.795" x2="35.706" y2="17.795" gradientUnits="userSpaceOnUse"><stop stop-color="#FFCE00"/><stop offset="1" stop-color="#FFEA00"/></linearGradient><linearGradient id="paint2_linear_301_2754" x1="8.29" y1="33.863" x2="25.419" y2="20.13" gradientUnits="userSpaceOnUse"><stop stop-color="#DE2453"/><stop offset="1" stop-color="#FE3944"/></linearGradient><linearGradient id="paint3_linear_301_2754" x1="9.121" y1="2.139" x2="25.422" y2="15.454" gradientUnits="userSpaceOnUse"><stop stop-color="#11D574"/><stop offset="1" stop-color="#01F176"/></linearGradient></defs></svg>