<svg width="326" height="593" fill="none" xmlns="http://www.w3.org/2000/svg"><path d="M-104.953 83.95c0 46.507 17.985 124.926-49.93 209.698-66.336 82.802 24.924-179.394 116.578-195.622 107.138-18.97-77.502 420.275-87.023 330.883-5.326-50.011 149.646-312.51 193.238-268.918 55.454 55.454-89.957 372.2-123.91 366.99-59.9-9.19 154.332-373.535 215.118-342.155 72.485 37.418-46.99 287.123-102.428 300.517-44.351 10.714 121.065-231.278 231.756-175.894" stroke="#000" stroke-width="8" stroke-linecap="round"/><path d="M295.941 289.989c1.081-1.935 4.039-.937 3.726 1.257l-.576 4.042a2.001 2.001 0 002.255 2.264l15.715-2.18c2.12-.294 3.158 2.499 1.36 3.661l-11.677 7.55c-1.355.876-1.168 2.913.323 3.528l7.949 3.282c1.828.755 1.569 3.42-.369 3.81l-5.203 1.045a2 2 0 00-1.506 2.585l1.476 4.494c.564 1.717-1.258 3.242-2.849 2.384l-6.344-3.42c-1.628-.878-3.472.735-2.821 2.465l3.49 9.266c.757 2.01-1.755 3.638-3.28 2.125l-9.864-9.783a2 2 0 00-2.393-.321l-11.119 6.291c-1.853 1.048-3.843-1.139-2.625-2.885l6.548-9.387a2 2 0 00-.377-2.695l-11.418-9.294c-1.459-1.188-.619-3.551 1.263-3.551h8.796a2 2 0 001.979-1.715l1.379-9.562c.299-2.069 3.17-2.351 3.866-.381l2.234 6.324c.573 1.623 2.792 1.812 3.632.309l6.43-11.508z" fill="#CD4631"/></svg>